<?xml version="1.0" encoding="UTF-8"?>
<!DOCTYPE svg PUBLIC "-//W3C//DTD SVG 1.1//EN" "http://www.w3.org/Graphics/SVG/1.1/DTD/svg11.dtd">
<svg width="1486" height="1117" xmlns="http://www.w3.org/2000/svg" xmlns:xlink="http://www.w3.org/1999/xlink"
     version="1.1" baseProfile="full" viewBox="0 0 1486 1117">
    <rect width="1486" height="1117" x="0" y="0" fill="none"></rect>
    <path d="M148.6 1047.5L1337.4 1047.5" fill="transparent" stroke="#E0E6F1" class="zr0-cls-0"></path>
    <path d="M148.6 800.5L1337.4 800.5" fill="transparent" stroke="#E0E6F1" class="zr0-cls-0"></path>
    <path d="M148.6 553.5L1337.4 553.5" fill="transparent" stroke="#E0E6F1" class="zr0-cls-0"></path>
    <path d="M148.6 307.5L1337.4 307.5" fill="transparent" stroke="#E0E6F1" class="zr0-cls-0"></path>
    <path d="M148.6 60.5L1337.4 60.5" fill="transparent" stroke="#E0E6F1" class="zr0-cls-0"></path>
    <path d="M148.6 1047.5L1337.4 1047.5" fill="transparent" stroke="#6E7079" stroke-linecap="round"
          class="zr0-cls-0"></path>
    <path d="M148.5 1047L148.5 1052" fill="transparent" stroke="#6E7079" class="zr0-cls-0"></path>
    <path d="M318.5 1047L318.5 1052" fill="transparent" stroke="#6E7079" class="zr0-cls-0"></path>
    <path d="M488.5 1047L488.5 1052" fill="transparent" stroke="#6E7079" class="zr0-cls-0"></path>
    <path d="M658.5 1047L658.5 1052" fill="transparent" stroke="#6E7079" class="zr0-cls-0"></path>
    <path d="M828.5 1047L828.5 1052" fill="transparent" stroke="#6E7079" class="zr0-cls-0"></path>
    <path d="M997.5 1047L997.5 1052" fill="transparent" stroke="#6E7079" class="zr0-cls-0"></path>
    <path d="M1167.5 1047L1167.5 1052" fill="transparent" stroke="#6E7079" class="zr0-cls-0"></path>
    <path d="M1337.5 1047L1337.5 1052" fill="transparent" stroke="#6E7079" class="zr0-cls-0"></path>
    <text dominant-baseline="central" text-anchor="end" style="font-size:12px;font-family:Microsoft YaHei;"
          transform="translate(140.6 1047)" fill="#6E7079">0
    </text>
    <text dominant-baseline="central" text-anchor="end" style="font-size:12px;font-family:Microsoft YaHei;"
          transform="translate(140.6 800.25)" fill="#6E7079">50
    </text>
    <text dominant-baseline="central" text-anchor="end" style="font-size:12px;font-family:Microsoft YaHei;"
          transform="translate(140.6 553.5)" fill="#6E7079">100
    </text>
    <text dominant-baseline="central" text-anchor="end" style="font-size:12px;font-family:Microsoft YaHei;"
          transform="translate(140.6 306.75)" fill="#6E7079">150
    </text>
    <text dominant-baseline="central" text-anchor="end" style="font-size:12px;font-family:Microsoft YaHei;"
          transform="translate(140.6 60)" fill="#6E7079">200
    </text>
    <text dominant-baseline="central" text-anchor="middle" style="font-size:12px;font-family:Microsoft YaHei;" y="6"
          transform="translate(233.5143 1055)" fill="#6E7079">Mon
    </text>
    <text dominant-baseline="central" text-anchor="middle" style="font-size:12px;font-family:Microsoft YaHei;" y="6"
          transform="translate(403.3429 1055)" fill="#6E7079">Tue
    </text>
    <text dominant-baseline="central" text-anchor="middle" style="font-size:12px;font-family:Microsoft YaHei;" y="6"
          transform="translate(573.1714 1055)" fill="#6E7079">Wed
    </text>
    <text dominant-baseline="central" text-anchor="middle" style="font-size:12px;font-family:Microsoft YaHei;" y="6"
          transform="translate(743 1055)" fill="#6E7079">Thu
    </text>
    <text dominant-baseline="central" text-anchor="middle" style="font-size:12px;font-family:Microsoft YaHei;" y="6"
          transform="translate(912.8286 1055)" fill="#6E7079">Fri
    </text>
    <text dominant-baseline="central" text-anchor="middle" style="font-size:12px;font-family:Microsoft YaHei;" y="6"
          transform="translate(1082.6571 1055)" fill="#6E7079">Sat
    </text>
    <text dominant-baseline="central" text-anchor="middle" style="font-size:12px;font-family:Microsoft YaHei;" y="6"
          transform="translate(1252.4857 1055)" fill="#6E7079">Sun
    </text>
    <path d="M174.9234 1047l117.1817 0l0 -592.2l-117.1817 0Z" fill="rgb(84,112,198)" class="zr0-cls-1"></path>
    <path d="M344.752 1047l117.1817 0l0 -987l-117.1817 0Z" fill="rgb(84,112,198)" class="zr0-cls-1"></path>
    <path d="M514.5806 1047l117.1817 0l0 -740.25l-117.1817 0Z" fill="rgb(84,112,198)" class="zr0-cls-1"></path>
    <path d="M684.4091 1047l117.1817 0l0 -394.8l-117.1817 0Z" fill="#5470c6" class="zr0-cls-1"></path>
    <path d="M854.2377 1047l117.1817 0l0 -345.45l-117.1817 0Z" fill="#5470c6" class="zr0-cls-1"></path>
    <path d="M1024.0663 1047l117.1817 0l0 -542.85l-117.1817 0Z" fill="#5470c6" class="zr0-cls-1"></path>
    <path d="M1193.8949 1047l117.1817 0l0 -641.55l-117.1817 0Z" fill="#5470c6" class="zr0-cls-1"></path>
    <style><![CDATA[
.zr0-cls-0:hover {
pointer-events:none;
}
.zr0-cls-1:hover {
cursor:pointer;
fill:rgba(92,123,217,1);
}

]]>

    </style>
</svg>