<svg width="1486" height="1117" xmlns="http://www.w3.org/2000/svg" xmlns:xlink="http://www.w3.org/1999/xlink" version="1.1" baseProfile="full" viewBox="0 0 1486 1117">
<rect width="1486" height="1117" x="0" y="0" fill="none"></rect>
<path d="M148.6 1047.5L1337.4 1047.5" fill="transparent" stroke="#E0E6F1" class="zr0-cls-0"></path>
<path d="M148.6 882.5L1337.4 882.5" fill="transparent" stroke="#E0E6F1" class="zr0-cls-0"></path>
<path d="M148.6 718.5L1337.4 718.5" fill="transparent" stroke="#E0E6F1" class="zr0-cls-0"></path>
<path d="M148.6 553.5L1337.4 553.5" fill="transparent" stroke="#E0E6F1" class="zr0-cls-0"></path>
<path d="M148.6 389.5L1337.4 389.5" fill="transparent" stroke="#E0E6F1" class="zr0-cls-0"></path>
<path d="M148.6 224.5L1337.4 224.5" fill="transparent" stroke="#E0E6F1" class="zr0-cls-0"></path>
<path d="M148.6 60.5L1337.4 60.5" fill="transparent" stroke="#E0E6F1" class="zr0-cls-0"></path>
<path d="M148.6 1047.5L1337.4 1047.5" fill="transparent" stroke="#6E7079" stroke-linecap="round" class="zr0-cls-0"></path>
<path d="M148.5 1047L148.5 1052" fill="transparent" stroke="#6E7079" class="zr0-cls-0"></path>
<path d="M318.5 1047L318.5 1052" fill="transparent" stroke="#6E7079" class="zr0-cls-0"></path>
<path d="M488.5 1047L488.5 1052" fill="transparent" stroke="#6E7079" class="zr0-cls-0"></path>
<path d="M658.5 1047L658.5 1052" fill="transparent" stroke="#6E7079" class="zr0-cls-0"></path>
<path d="M828.5 1047L828.5 1052" fill="transparent" stroke="#6E7079" class="zr0-cls-0"></path>
<path d="M997.5 1047L997.5 1052" fill="transparent" stroke="#6E7079" class="zr0-cls-0"></path>
<path d="M1167.5 1047L1167.5 1052" fill="transparent" stroke="#6E7079" class="zr0-cls-0"></path>
<path d="M1337.5 1047L1337.5 1052" fill="transparent" stroke="#6E7079" class="zr0-cls-0"></path>
<text dominant-baseline="central" text-anchor="end" style="font-size:12px;font-family:Microsoft YaHei;" transform="translate(140.6 1047)" fill="#6E7079">0</text>
<text dominant-baseline="central" text-anchor="end" style="font-size:12px;font-family:Microsoft YaHei;" transform="translate(140.6 882.5)" fill="#6E7079">50</text>
<text dominant-baseline="central" text-anchor="end" style="font-size:12px;font-family:Microsoft YaHei;" transform="translate(140.6 718)" fill="#6E7079">100</text>
<text dominant-baseline="central" text-anchor="end" style="font-size:12px;font-family:Microsoft YaHei;" transform="translate(140.6 553.5)" fill="#6E7079">150</text>
<text dominant-baseline="central" text-anchor="end" style="font-size:12px;font-family:Microsoft YaHei;" transform="translate(140.6 389)" fill="#6E7079">200</text>
<text dominant-baseline="central" text-anchor="end" style="font-size:12px;font-family:Microsoft YaHei;" transform="translate(140.6 224.5)" fill="#6E7079">250</text>
<text dominant-baseline="central" text-anchor="end" style="font-size:12px;font-family:Microsoft YaHei;" transform="translate(140.6 60)" fill="#6E7079">300</text>
<text dominant-baseline="central" text-anchor="middle" style="font-size:12px;font-family:Microsoft YaHei;" y="6" transform="translate(233.5143 1055)" fill="#6E7079">Mon</text>
<text dominant-baseline="central" text-anchor="middle" style="font-size:12px;font-family:Microsoft YaHei;" y="6" transform="translate(403.3429 1055)" fill="#6E7079">Tue</text>
<text dominant-baseline="central" text-anchor="middle" style="font-size:12px;font-family:Microsoft YaHei;" y="6" transform="translate(573.1714 1055)" fill="#6E7079">Wed</text>
<text dominant-baseline="central" text-anchor="middle" style="font-size:12px;font-family:Microsoft YaHei;" y="6" transform="translate(743 1055)" fill="#6E7079">Thu</text>
<text dominant-baseline="central" text-anchor="middle" style="font-size:12px;font-family:Microsoft YaHei;" y="6" transform="translate(912.8286 1055)" fill="#6E7079">Fri</text>
<text dominant-baseline="central" text-anchor="middle" style="font-size:12px;font-family:Microsoft YaHei;" y="6" transform="translate(1082.6571 1055)" fill="#6E7079">Sat</text>
<text dominant-baseline="central" text-anchor="middle" style="font-size:12px;font-family:Microsoft YaHei;" y="6" transform="translate(1252.4857 1055)" fill="#6E7079">Sun</text>
<g clip-path="url(#zr0-c0)">
<path d="M233.5143 553.5L403.3429 290.3L573.1714 310.04L743 329.78L912.8286 602.85L1082.6571 563.37L1252.4857 191.6" fill="transparent" stroke="rgb(84,112,198)" stroke-width="2" stroke-linejoin="bevel" class="zr0-cls-2"></path>
</g>
<path d="M1 0A1 1 0 1 1 1 -0.0001" transform="matrix(2,0,0,2,233.5143,553.5)" fill="#fff" stroke="#5470c6" class="zr0-cls-3"></path>
<path d="M1 0A1 1 0 1 1 1 -0.0001" transform="matrix(2,0,0,2,403.3429,290.3)" fill="#fff" stroke="#5470c6" class="zr0-cls-3"></path>
<path d="M1 0A1 1 0 1 1 1 -0.0001" transform="matrix(2,0,0,2,573.1714,310.04)" fill="#fff" stroke="#5470c6" class="zr0-cls-3"></path>
<path d="M1 0A1 1 0 1 1 1 -0.0001" transform="matrix(2,0,0,2,743,329.78)" fill="#fff" stroke="#5470c6" class="zr0-cls-3"></path>
<path d="M1 0A1 1 0 1 1 1 -0.0001" transform="matrix(2,0,0,2,912.8286,602.85)" fill="#fff" stroke="#5470c6" class="zr0-cls-3"></path>
<path d="M1 0A1 1 0 1 1 1 -0.0001" transform="matrix(2,0,0,2,1082.6571,563.37)" fill="#fff" stroke="#5470c6" class="zr0-cls-3"></path>
<path d="M1 0A1 1 0 1 1 1 -0.0001" transform="matrix(2,0,0,2,1252.4857,191.6)" fill="#fff" stroke="#5470c6" class="zr0-cls-3"></path>
<defs >
<clipPath id="zr0-c0">
<path d="M147 59l1192 0l0 989l-1192 0Z" fill="#000" class="zr0-cls-1"></path>
</clipPath>
</defs>
<style ><![CDATA[
.zr0-cls-0:hover {
pointer-events:none;
}
.zr0-cls-1:hover {
cursor:pointer;
fill:rgba(0,0,0,1);
}
.zr0-cls-2:hover {
cursor:pointer;
}
.zr0-cls-3:hover {
cursor:pointer;
fill:rgba(255,255,255,1);
}

]]>

</style>
</svg>