<?xml version="1.0" encoding="UTF-8"?>
<!DOCTYPE svg PUBLIC "-//W3C//DTD SVG 1.1//EN" "http://www.w3.org/Graphics/SVG/1.1/DTD/svg11.dtd">
<svg xmlns="http://www.w3.org/2000/svg" version="1.1" width="1486px" height="1117px" style="shape-rendering:geometricPrecision; text-rendering:geometricPrecision; image-rendering:optimizeQuality; fill-rule:evenodd; clip-rule:evenodd" xmlns:xlink="http://www.w3.org/1999/xlink">
<g><path style="opacity:0.619" fill="#6e7079" d="M 117.5,50.5 C 119.467,50.2606 121.301,50.5939 123,51.5C 125.249,58.3242 123.082,60.6575 116.5,58.5C 118.167,57.8333 119.833,57.1667 121.5,56.5C 120.5,55.8333 119.5,55.1667 118.5,54.5C 119.025,53.8076 119.692,53.3076 120.5,53C 118.881,52.7645 117.881,51.9311 117.5,50.5 Z"/></g>
<g><path style="opacity:0.645" fill="#6c6e76" d="M 125.5,50.5 C 127.467,50.2606 129.301,50.5939 131,51.5C 131.769,54.0991 131.602,56.5991 130.5,59C 128.741,59.7975 127.074,59.6309 125.5,58.5C 124.297,55.8401 124.297,53.1735 125.5,50.5 Z M 127.5,52.5 C 128.649,52.7911 129.316,53.6244 129.5,55C 129.167,55.8333 128.833,56.6667 128.5,57.5C 127.548,55.9547 127.215,54.288 127.5,52.5 Z"/></g>
<g><path style="opacity:0.645" fill="#6c6e76" d="M 133.5,50.5 C 135.467,50.2606 137.301,50.5939 139,51.5C 139.769,54.0991 139.602,56.5991 138.5,59C 136.741,59.7975 135.074,59.6309 133.5,58.5C 132.297,55.8401 132.297,53.1735 133.5,50.5 Z M 135.5,52.5 C 136.649,52.7911 137.316,53.6244 137.5,55C 137.167,55.8333 136.833,56.6667 136.5,57.5C 135.548,55.9547 135.215,54.288 135.5,52.5 Z"/></g>
<g><path style="opacity:1" fill="#e0e6f0" d="M 147.5,60.5 C 544,59.3335 940.666,59.1669 1337.5,60C 940.833,60.5 544.167,60.6667 147.5,60.5 Z"/></g>
<g><path style="opacity:0.796" fill="#9da7dc" d="M 234.5,553.5 C 234.5,552.833 234.833,552.5 235.5,552.5C 450.167,552.667 664.834,552.5 879.5,552C 871.114,539.391 863.114,526.557 855.5,513.5C 855.833,512.5 856.5,511.833 857.5,511.5C 865.808,524.769 874.142,538.102 882.5,551.5C 950.167,552.833 1017.83,552.833 1085.5,551.5C 1110.04,497.592 1134.7,443.758 1159.5,390C 1033.83,389.5 908.167,389.333 782.5,389.5C 781.508,389.672 780.842,389.338 780.5,388.5C 907.168,388.833 1033.84,388.5 1160.5,387.5C 1185.17,333.5 1209.83,279.5 1234.5,225.5C 872.167,224.667 509.834,224.167 147.5,224C 510.167,223.667 872.833,223.333 1235.5,223C 1240.33,212.517 1245.16,202.017 1250,191.5C 1251.18,190.269 1252.35,190.269 1253.5,191.5C 1248.83,201.833 1244.17,212.167 1239.5,222.5C 1272.16,223.333 1304.83,223.833 1337.5,224C 1304.5,224.333 1271.5,224.667 1238.5,225C 1213.5,279.333 1188.5,333.667 1163.5,388C 1221.5,388.333 1279.5,388.667 1337.5,389C 1279.17,389.5 1220.83,389.667 1162.5,389.5C 1138.32,443.858 1113.66,498.025 1088.5,552C 1171.5,552.333 1254.5,552.667 1337.5,553C 1254.17,553.5 1170.83,553.667 1087.5,553.5C 1086.78,557.941 1084.78,561.608 1081.5,564.5C 1025.56,577.755 969.557,590.755 913.5,603.5C 911.42,603.314 909.92,602.314 909,600.5C 899.751,584.999 890.251,569.666 880.5,554.5C 665.168,553.5 449.834,553.167 234.5,553.5 Z M 884.5,553.5 C 951.167,553.333 1017.83,553.5 1084.5,554C 1083.58,557.175 1081.92,559.842 1079.5,562C 1024.31,574.755 969.146,587.588 914,600.5C 903.548,585.216 893.714,569.549 884.5,553.5 Z"/></g>
<g><path style="opacity:0.645" fill="#6c6e76" d="M 133.5,215.5 C 135.467,215.261 137.301,215.594 139,216.5C 139.769,219.099 139.602,221.599 138.5,224C 136.741,224.798 135.074,224.631 133.5,223.5C 132.297,220.84 132.297,218.173 133.5,215.5 Z M 135.5,217.5 C 136.649,217.791 137.316,218.624 137.5,220C 137.167,220.833 136.833,221.667 136.5,222.5C 135.548,220.955 135.215,219.288 135.5,217.5 Z"/></g>
<g><path style="opacity:0.691" fill="#6d7079" d="M 125.5,215.5 C 127.288,215.215 128.955,215.548 130.5,216.5C 126.639,217.598 126.639,218.431 130.5,219C 131.947,224.331 129.947,225.831 124.5,223.5C 126.167,222.833 127.833,222.167 129.5,221.5C 128.311,220.571 126.978,220.238 125.5,220.5C 125.5,218.833 125.5,217.167 125.5,215.5 Z"/></g>
<g><path style="opacity:0.753" fill="#6b6e74" d="M 116.5,215.5 C 123.137,214.282 124.803,216.448 121.5,222C 122.308,222.308 122.975,222.808 123.5,223.5C 121.167,224.833 118.833,224.833 116.5,223.5C 117.982,221.517 119.649,219.684 121.5,218C 119.256,217.95 117.589,217.117 116.5,215.5 Z"/></g>
<g><path style="opacity:0.812" fill="#7384cf" d="M 780.5,388.5 C 780.842,389.338 781.508,389.672 782.5,389.5C 807.473,430.149 832.473,470.816 857.5,511.5C 856.5,511.833 855.833,512.5 855.5,513.5C 829.608,472.732 803.941,431.732 778.5,390.5C 632.501,389.333 486.501,389.167 340.5,390C 305.116,443.94 270.116,498.106 235.5,552.5C 234.833,552.5 234.5,552.833 234.5,553.5C 205.498,553.667 176.498,553.5 147.5,553C 175.5,552.667 203.5,552.333 231.5,552C 266.251,497.83 301.251,443.83 336.5,390C 273.5,389.667 210.5,389.333 147.5,389C 210.833,388.667 274.167,388.333 337.5,388C 358.833,355 380.167,322 401.5,289C 515.538,301.338 629.538,314.338 743.5,328C 756.232,347.972 768.565,368.139 780.5,388.5 Z M 403.5,291.5 C 516.199,304.337 628.866,317.504 741.5,331C 753.5,350 765.5,369 777.5,388C 632.167,388.667 486.833,388.667 341.5,388C 362.39,355.95 383.057,323.783 403.5,291.5 Z"/></g>
<g><path style="opacity:0.645" fill="#6c6e76" d="M 125.5,379.5 C 127.467,379.261 129.301,379.594 131,380.5C 131.769,383.099 131.602,385.599 130.5,388C 128.741,388.798 127.074,388.631 125.5,387.5C 124.297,384.84 124.297,382.173 125.5,379.5 Z M 127.5,381.5 C 128.649,381.791 129.316,382.624 129.5,384C 129.167,384.833 128.833,385.667 128.5,386.5C 127.548,384.955 127.215,383.288 127.5,381.5 Z"/></g>
<g><path style="opacity:0.645" fill="#6c6e76" d="M 133.5,379.5 C 135.467,379.261 137.301,379.594 139,380.5C 139.769,383.099 139.602,385.599 138.5,388C 136.741,388.798 135.074,388.631 133.5,387.5C 132.297,384.84 132.297,382.173 133.5,379.5 Z M 135.5,381.5 C 136.649,381.791 137.316,382.624 137.5,384C 137.167,384.833 136.833,385.667 136.5,386.5C 135.548,384.955 135.215,383.288 135.5,381.5 Z"/></g>
<g><path style="opacity:0.753" fill="#6b6e74" d="M 116.5,379.5 C 123.137,378.282 124.803,380.448 121.5,386C 122.308,386.308 122.975,386.808 123.5,387.5C 121.167,388.833 118.833,388.833 116.5,387.5C 117.982,385.517 119.649,383.684 121.5,382C 119.256,381.95 117.589,381.117 116.5,379.5 Z"/></g>
<g><path style="opacity:0.692" fill="#6e727a" d="M 117.5,544.5 C 118.833,544.5 120.167,544.5 121.5,544.5C 121.11,547.466 121.777,550.132 123.5,552.5C 121.5,553.833 119.5,553.833 117.5,552.5C 118.489,551.532 119.156,550.365 119.5,549C 118.926,547.393 118.26,545.893 117.5,544.5 Z"/></g>
<g><path style="opacity:0.645" fill="#6c6e76" d="M 133.5,544.5 C 135.467,544.261 137.301,544.594 139,545.5C 139.769,548.099 139.602,550.599 138.5,553C 136.741,553.798 135.074,553.631 133.5,552.5C 132.297,549.84 132.297,547.173 133.5,544.5 Z M 135.5,546.5 C 136.649,546.791 137.316,547.624 137.5,549C 137.167,549.833 136.833,550.667 136.5,551.5C 135.548,549.955 135.215,548.288 135.5,546.5 Z"/></g>
<g><path style="opacity:0.691" fill="#6d7079" d="M 125.5,544.5 C 127.288,544.215 128.955,544.548 130.5,545.5C 126.639,546.598 126.639,547.431 130.5,548C 131.947,553.331 129.947,554.831 124.5,552.5C 126.167,551.833 127.833,551.167 129.5,550.5C 128.311,549.571 126.978,549.238 125.5,549.5C 125.5,547.833 125.5,546.167 125.5,544.5 Z"/></g>
<g><path style="opacity:0.692" fill="#6e727a" d="M 117.5,708.5 C 118.833,708.5 120.167,708.5 121.5,708.5C 121.11,711.466 121.777,714.132 123.5,716.5C 121.5,717.833 119.5,717.833 117.5,716.5C 118.489,715.532 119.156,714.365 119.5,713C 118.926,711.393 118.26,709.893 117.5,708.5 Z"/></g>
<g><path style="opacity:0.645" fill="#6c6e76" d="M 125.5,708.5 C 127.467,708.261 129.301,708.594 131,709.5C 131.769,712.099 131.602,714.599 130.5,717C 128.741,717.798 127.074,717.631 125.5,716.5C 124.297,713.84 124.297,711.173 125.5,708.5 Z M 127.5,710.5 C 128.649,710.791 129.316,711.624 129.5,713C 129.167,713.833 128.833,714.667 128.5,715.5C 127.548,713.955 127.215,712.288 127.5,710.5 Z"/></g>
<g><path style="opacity:0.645" fill="#6c6e76" d="M 133.5,708.5 C 135.467,708.261 137.301,708.594 139,709.5C 139.769,712.099 139.602,714.599 138.5,717C 136.741,717.798 135.074,717.631 133.5,716.5C 132.297,713.84 132.297,711.173 133.5,708.5 Z M 135.5,710.5 C 136.649,710.791 137.316,711.624 137.5,713C 137.167,713.833 136.833,714.667 136.5,715.5C 135.548,713.955 135.215,712.288 135.5,710.5 Z"/></g>
<g><path style="opacity:1" fill="#e0e6f0" d="M 147.5,718.5 C 544,717.334 940.666,717.167 1337.5,718C 940.833,718.5 544.167,718.667 147.5,718.5 Z"/></g>
<g><path style="opacity:0.645" fill="#6c6e76" d="M 133.5,873.5 C 135.467,873.261 137.301,873.594 139,874.5C 139.769,877.099 139.602,879.599 138.5,882C 136.741,882.798 135.074,882.631 133.5,881.5C 132.297,878.84 132.297,876.173 133.5,873.5 Z M 135.5,875.5 C 136.649,875.791 137.316,876.624 137.5,878C 137.167,878.833 136.833,879.667 136.5,880.5C 135.548,878.955 135.215,877.288 135.5,875.5 Z"/></g>
<g><path style="opacity:0.691" fill="#6d7079" d="M 125.5,873.5 C 127.288,873.215 128.955,873.548 130.5,874.5C 126.639,875.598 126.639,876.431 130.5,877C 131.947,882.331 129.947,883.831 124.5,881.5C 126.167,880.833 127.833,880.167 129.5,879.5C 128.311,878.571 126.978,878.238 125.5,878.5C 125.5,876.833 125.5,875.167 125.5,873.5 Z"/></g>
<g><path style="opacity:1" fill="#e0e6f0" d="M 147.5,882.5 C 544,881.334 940.666,881.167 1337.5,882C 940.833,882.5 544.167,882.667 147.5,882.5 Z"/></g>
<g><path style="opacity:0.645" fill="#6c6e76" d="M 133.5,1037.5 C 135.467,1037.26 137.301,1037.59 139,1038.5C 139.769,1041.1 139.602,1043.6 138.5,1046C 136.741,1046.8 135.074,1046.63 133.5,1045.5C 132.297,1042.84 132.297,1040.17 133.5,1037.5 Z M 135.5,1039.5 C 136.649,1039.79 137.316,1040.62 137.5,1042C 137.167,1042.83 136.833,1043.67 136.5,1044.5C 135.548,1042.95 135.215,1041.29 135.5,1039.5 Z"/></g>
<g><path style="opacity:1" fill="#6d7078" d="M 147.5,1046.5 C 544.167,1046.5 940.833,1046.5 1337.5,1046.5C 1337.34,1052.17 1337,1052.5 1336.5,1047.5C 1280.17,1047.5 1223.83,1047.5 1167.5,1047.5C 1167.17,1052.83 1166.83,1052.83 1166.5,1047.5C 1110.17,1047.5 1053.83,1047.5 997.5,1047.5C 997.167,1052.83 996.833,1052.83 996.5,1047.5C 940.5,1047.5 884.5,1047.5 828.5,1047.5C 828.167,1052.83 827.833,1052.83 827.5,1047.5C 771.167,1047.5 714.833,1047.5 658.5,1047.5C 658.167,1052.83 657.833,1052.83 657.5,1047.5C 601.167,1047.5 544.833,1047.5 488.5,1047.5C 488.167,1052.83 487.833,1052.83 487.5,1047.5C 431.167,1047.5 374.833,1047.5 318.5,1047.5C 318.167,1052.83 317.833,1052.83 317.5,1047.5C 261.167,1047.5 204.833,1047.5 148.5,1047.5C 147.997,1052.5 147.664,1052.17 147.5,1046.5 Z"/></g>
<g><path style="opacity:0.746" fill="#6d7179" d="M 739.5,1050.5 C 741.048,1050.82 741.715,1051.82 741.5,1053.5C 742.833,1053.5 744.167,1053.5 745.5,1053.5C 745.808,1055.92 745.474,1058.26 744.5,1060.5C 743.167,1053.83 741.833,1053.83 740.5,1060.5C 739.526,1058.26 739.192,1055.92 739.5,1053.5C 738.5,1053.5 737.5,1053.5 736.5,1053.5C 735.833,1062.83 735.167,1062.83 734.5,1053.5C 732.897,1053.69 731.563,1053.19 730.5,1052C 733.695,1051.82 736.695,1051.32 739.5,1050.5 Z"/></g>
<g><path style="opacity:0.443" fill="#6d6f79" d="M 917.5,1050.5 C 919.337,1050.64 919.67,1051.31 918.5,1052.5C 917.702,1052.04 917.369,1051.38 917.5,1050.5 Z"/></g>
<g><path style="opacity:0.605" fill="#6d6f78" d="M 221.5,1051.5 C 222.5,1051.5 223.5,1051.5 224.5,1051.5C 225.168,1056.37 226.168,1056.53 227.5,1052C 228.448,1051.52 229.448,1051.35 230.5,1051.5C 230.351,1052.55 230.517,1053.55 231,1054.5C 236.333,1052.17 238.333,1053.83 237,1059.5C 236.107,1060.08 235.107,1060.41 234,1060.5C 232.331,1059.83 230.831,1059.83 229.5,1060.5C 228.702,1058.92 228.202,1057.26 228,1055.5C 227.593,1059.33 226.26,1060 224,1057.5C 223.751,1058.62 223.251,1059.62 222.5,1060.5C 221.516,1057.57 221.183,1054.57 221.5,1051.5 Z M 233.5,1055.5 C 235.465,1055.95 235.798,1056.95 234.5,1058.5C 232.481,1057.87 232.147,1056.87 233.5,1055.5 Z"/></g>
<g><path style="opacity:0.706" fill="#6a6c74" d="M 582.5,1050.5 C 584.402,1053.34 585.069,1056.67 584.5,1060.5C 580.175,1059.35 575.842,1059.19 571.5,1060C 570.126,1056.59 569.459,1056.76 569.5,1060.5C 568.5,1060.5 567.5,1060.5 566.5,1060.5C 565.386,1055.37 564.719,1055.37 564.5,1060.5C 562.876,1060.64 561.71,1059.97 561,1058.5C 559.961,1056.1 559.794,1053.77 560.5,1051.5C 562.069,1052.71 562.902,1054.38 563,1056.5C 564.667,1049.83 566.333,1049.83 568,1056.5C 568.098,1054.38 568.931,1052.71 570.5,1051.5C 574.224,1054.11 578.224,1054.78 582.5,1053.5C 582.5,1052.5 582.5,1051.5 582.5,1050.5 Z M 580.5,1055.5 C 582.97,1056.36 583.137,1057.69 581,1059.5C 579.232,1058.32 579.065,1056.98 580.5,1055.5 Z"/></g>
<g><path style="opacity:0.724" fill="#696d75" d="M 912.5,1053.5 C 907.89,1053.6 907.556,1054.6 911.5,1056.5C 910.675,1057.39 909.675,1057.72 908.5,1057.5C 908.719,1058.68 908.386,1059.68 907.5,1060.5C 906.516,1057.57 906.183,1054.57 906.5,1051.5C 909.082,1051.03 911.082,1051.69 912.5,1053.5 Z"/></g>
<g><path style="opacity:0.826" fill="#6d7079" d="M 1087.5,1054.5 C 1088.65,1050.76 1090.31,1050.59 1092.5,1054C 1089.83,1056 1089.83,1058 1092.5,1060C 1091.21,1060.49 1089.87,1060.66 1088.5,1060.5C 1088.79,1058.26 1088.46,1056.26 1087.5,1054.5 Z"/></g>
<g><path style="opacity:0.685" fill="#6c7079" d="M 1073.5,1051.5 C 1075.6,1051.2 1077.6,1051.53 1079.5,1052.5C 1078.27,1053.28 1076.94,1053.78 1075.5,1054C 1078.64,1055 1079.97,1057.17 1079.5,1060.5C 1077.08,1060.81 1074.74,1060.47 1072.5,1059.5C 1078.98,1058.82 1079.15,1057.49 1073,1055.5C 1072.42,1054.07 1072.59,1052.74 1073.5,1051.5 Z"/></g>
<g><path style="opacity:0.685" fill="#6c7079" d="M 1240.5,1051.5 C 1242.6,1051.2 1244.6,1051.53 1246.5,1052.5C 1245.27,1053.28 1243.94,1053.78 1242.5,1054C 1245.64,1055 1246.97,1057.17 1246.5,1060.5C 1244.08,1060.81 1241.74,1060.47 1239.5,1059.5C 1245.98,1058.82 1246.15,1057.49 1240,1055.5C 1239.42,1054.07 1239.59,1052.74 1240.5,1051.5 Z"/></g>
<g><path style="opacity:0.617" fill="#6d6f78" d="M 238.5,1053.5 C 240.5,1053.5 242.5,1053.5 244.5,1053.5C 244.808,1055.92 244.474,1058.26 243.5,1060.5C 242.167,1053.83 240.833,1053.83 239.5,1060.5C 238.526,1058.26 238.192,1055.92 238.5,1053.5 Z"/></g>
<g><path style="opacity:0.671" fill="#666870" d="M 407.5,1053.5 C 411.241,1052.6 413.241,1053.93 413.5,1057.5C 408.318,1057.56 408.318,1058.22 413.5,1059.5C 407.129,1061.8 405.129,1059.8 407.5,1053.5 Z"/></g>
<g><path style="opacity:0.694" fill="#686a72" d="M 912.5,1053.5 C 913.822,1053.67 914.989,1053.34 916,1052.5C 916.167,1053 916.333,1053.5 916.5,1054C 915.277,1056.06 914.277,1058.22 913.5,1060.5C 912.526,1058.26 912.192,1055.92 912.5,1053.5 Z"/></g>
<g><path style="opacity:0.204" fill="#6c707a" d="M 917.5,1053.5 C 918.725,1054.15 919.392,1055.32 919.5,1057C 919.167,1058.17 918.833,1059.33 918.5,1060.5C 917.526,1058.26 917.192,1055.92 917.5,1053.5 Z"/></g>
<g><path style="opacity:0.664" fill="#6c6f78" d="M 1087.5,1054.5 C 1087.5,1056.5 1087.5,1058.5 1087.5,1060.5C 1085.47,1060.66 1083.47,1060.5 1081.5,1060C 1081.04,1059.59 1080.71,1059.09 1080.5,1058.5C 1081.71,1056.93 1083.38,1056.1 1085.5,1056C 1084.06,1055.78 1082.73,1055.28 1081.5,1054.5C 1083.52,1053.31 1085.52,1053.31 1087.5,1054.5 Z M 1083.5,1057.5 C 1086,1057.51 1086.17,1058.18 1084,1059.5C 1083.54,1058.91 1083.37,1058.24 1083.5,1057.5 Z"/></g>
<g><path style="opacity:0.617" fill="#6d6f78" d="M 1256.5,1053.5 C 1258.5,1053.5 1260.5,1053.5 1262.5,1053.5C 1262.81,1055.92 1262.47,1058.26 1261.5,1060.5C 1260.17,1053.83 1258.83,1053.83 1257.5,1060.5C 1256.53,1058.26 1256.19,1055.92 1256.5,1053.5 Z"/></g>
<g><path style="opacity:0.802" fill="#6c7179" d="M 391.5,1052.5 C 394.355,1051.2 397.355,1051.2 400.5,1052.5C 401.213,1054.78 401.713,1057.11 402,1059.5C 403.017,1057.62 403.851,1055.62 404.5,1053.5C 405.474,1055.74 405.808,1058.08 405.5,1060.5C 403.5,1060.5 401.5,1060.5 399.5,1060.5C 399.127,1051.26 398.127,1051.26 396.5,1060.5C 395.526,1058.26 395.192,1055.92 395.5,1053.5C 394.041,1053.57 392.708,1053.23 391.5,1052.5 Z"/></g>
<g><path style="opacity:0.802" fill="#6d7078" d="M 747.5,1053.5 C 749.164,1054.95 749.998,1056.95 750,1059.5C 751.017,1057.62 751.851,1055.62 752.5,1053.5C 753.474,1055.74 753.808,1058.08 753.5,1060.5C 751.5,1060.5 749.5,1060.5 747.5,1060.5C 747.5,1058.17 747.5,1055.83 747.5,1053.5 Z"/></g>
<g><path style="opacity:0.802" fill="#6d7078" d="M 1248.5,1053.5 C 1250.16,1054.95 1251,1056.95 1251,1059.5C 1252.02,1057.62 1252.85,1055.62 1253.5,1053.5C 1254.47,1055.74 1254.81,1058.08 1254.5,1060.5C 1252.5,1060.5 1250.5,1060.5 1248.5,1060.5C 1248.5,1058.17 1248.5,1055.83 1248.5,1053.5 Z"/></g>
</svg>
